<svg width="245" height="29" viewBox="0 0 245 29" fill="none" xmlns="http://www.w3.org/2000/svg">
<g opacity="0.2">
<path d="M12.28 28.4C11.1067 28.4 10.0533 28.3467 9.12 28.24C8.21333 28.1333 7.21333 27.9333 6.12 27.64C4.89333 27.32 3.88 26.9067 3.08 26.4C2.28 25.8667 1.61333 25.1333 1.08 24.2C0.52 23.2667 0.24 22.16 0.24 20.88V9.48C0.24 4.25333 4.25333 1.64 12.28 1.64C14.3333 1.64 17.08 1.93333 20.52 2.52V7.2C17.4267 6.45333 14.7067 6.08 12.36 6.08C11.3733 6.08 10.6 6.10667 10.04 6.16C9.50667 6.21333 8.94667 6.34667 8.36 6.56C7.10667 6.98667 6.48 7.93333 6.48 9.4V20.44C6.48 22.7867 8.62667 23.96 12.92 23.96C14.76 23.96 17.3467 23.5733 20.68 22.8V27.52C17.8267 28.1067 15.0267 28.4 12.28 28.4ZM24.5872 1.64H30.4272V6.36H24.5872V1.64ZM24.5872 8.64H30.4272V28H24.5872V8.64ZM35.7163 8.64H41.4763V11C41.9296 9.16 43.9963 8.24 47.6763 8.24C50.1563 8.24 51.8896 8.69333 52.8763 9.6C53.8896 10.48 54.3963 11.88 54.3963 13.8V28H48.5563V14.56C48.5563 13.8133 48.4763 13.2533 48.3163 12.88C48.1829 12.5067 47.8896 12.24 47.4363 12.08C47.0096 11.92 46.3429 11.84 45.4363 11.84C44.2896 11.84 43.4496 11.92 42.9163 12.08C42.3829 12.2133 42.0229 12.4667 41.8363 12.84C41.6496 13.2133 41.5563 13.7867 41.5563 14.56V28H35.7163V8.64ZM69.2253 28.4C62.372 28.4 58.9453 26.3067 58.9453 22.12V15.16C58.9453 12.7333 59.7186 10.9733 61.2653 9.88C62.8386 8.78667 65.252 8.24 68.5053 8.24C71.572 8.24 73.812 8.77333 75.2253 9.84C76.6653 10.88 77.3853 12.6533 77.3853 15.16V19.88H64.8253V21.64C64.8253 22.76 65.2253 23.56 66.0253 24.04C66.8253 24.52 68.2653 24.76 70.3453 24.76C72.2653 24.76 74.4253 24.48 76.8253 23.92V27.64C74.452 28.1467 71.9186 28.4 69.2253 28.4ZM71.8253 16.56V13.76C71.8253 13.12 71.5586 12.64 71.0253 12.32C70.5186 12 69.652 11.84 68.4253 11.84C67.012 11.84 66.0653 12 65.5853 12.32C65.0786 12.6667 64.8253 13.1467 64.8253 13.76V16.56H71.8253ZM81.8491 8.64H87.6891V11C88.0624 9.16 89.9691 8.24 93.4091 8.24C95.2224 8.24 96.5957 8.48 97.5291 8.96C98.4624 9.41333 99.0891 10.1333 99.4091 11.12C99.7291 10.1067 100.342 9.37333 101.249 8.92C102.182 8.46667 103.582 8.24 105.449 8.24C107.129 8.24 108.422 8.44 109.329 8.84C110.236 9.21333 110.862 9.8 111.209 10.6C111.582 11.4 111.769 12.4667 111.769 13.8V28H105.929V14.6C105.929 13.7467 105.876 13.1467 105.769 12.8C105.662 12.4267 105.422 12.1733 105.049 12.04C104.702 11.9067 104.089 11.84 103.209 11.84C102.116 11.84 101.329 11.9067 100.849 12.04C100.396 12.1733 100.089 12.4267 99.9291 12.8C99.7957 13.1467 99.7291 13.7467 99.7291 14.6V28H93.8891V14.6C93.8891 13.7467 93.8357 13.1467 93.7291 12.8C93.6224 12.4267 93.3824 12.1733 93.0091 12.04C92.6624 11.9067 92.0491 11.84 91.1691 11.84C90.0757 11.84 89.2891 11.9067 88.8091 12.04C88.3557 12.1733 88.0491 12.4267 87.8891 12.8C87.7557 13.1467 87.6891 13.7467 87.6891 14.6V28H81.8491V8.64ZM122.368 28.4C120.555 28.4 119.195 28.24 118.288 27.92C117.408 27.5733 116.781 26.9733 116.408 26.12C116.061 25.24 115.888 23.9333 115.888 22.2C115.888 20.6533 116.075 19.44 116.448 18.56C116.848 17.68 117.475 17.0533 118.328 16.68C119.208 16.28 120.408 16.08 121.928 16.08H128.488V14.76C128.488 13.9333 128.368 13.32 128.128 12.92C127.915 12.52 127.501 12.24 126.888 12.08C126.301 11.92 125.408 11.84 124.208 11.84C122.555 11.84 120.288 12 117.408 12.32V8.64C119.515 8.37333 121.981 8.24 124.808 8.24C127.288 8.24 129.195 8.42667 130.528 8.8C131.888 9.17333 132.861 9.81333 133.448 10.72C134.035 11.6267 134.328 12.9467 134.328 14.68V28H128.608V26.24C128.155 27.0133 127.541 27.56 126.768 27.88C125.995 28.2267 124.528 28.4 122.368 28.4ZM124.648 24.76C125.821 24.76 126.661 24.72 127.168 24.64C127.541 24.5867 127.795 24.5067 127.928 24.4C128.088 24.2933 128.221 24.12 128.328 23.88C128.435 23.6933 128.488 23.4133 128.488 23.04V19.28H124.488C123.581 19.28 122.941 19.3467 122.568 19.48C122.195 19.5867 121.941 19.8267 121.808 20.2C121.675 20.5467 121.608 21.1733 121.608 22.08C121.608 22.96 121.675 23.5733 121.808 23.92C121.941 24.2667 122.195 24.4933 122.568 24.6C122.968 24.7067 123.661 24.76 124.648 24.76ZM152.066 28.4C150.573 28.4 149.253 28.3333 148.106 28.2C146.96 28.0667 145.826 27.84 144.706 27.52C143.506 27.2 142.52 26.7733 141.746 26.24C140.973 25.68 140.346 24.96 139.866 24.08C139.386 23.1467 139.146 22.08 139.146 20.88V10.08C139.146 8.77333 139.413 7.6 139.946 6.56C140.48 5.49333 141.2 4.65333 142.106 4.04C142.96 3.48 143.973 3 145.146 2.6C146.346 2.2 147.52 1.93333 148.666 1.8C149.626 1.69333 150.786 1.64 152.146 1.64C155.826 1.64 159.346 1.92 162.706 2.48V7.2C159.613 6.45333 156.093 6.08 152.146 6.08C147.64 6.08 145.386 7.38667 145.386 10V20.44C145.386 21.72 145.986 22.6267 147.186 23.16C148.413 23.6933 150.253 23.96 152.706 23.96C154.013 23.96 155.413 23.76 156.906 23.36V17.32H152.666V13.24H162.866V26.72C161.533 27.2 159.826 27.6 157.746 27.92C155.693 28.24 153.8 28.4 152.066 28.4ZM174.389 28.4C171.909 28.4 170.163 27.96 169.149 27.08C168.163 26.1733 167.669 24.76 167.669 22.84V8.64H173.509V22.04C173.509 22.7867 173.576 23.3467 173.709 23.72C173.869 24.0933 174.163 24.36 174.589 24.52C175.043 24.68 175.723 24.76 176.629 24.76C177.776 24.76 178.616 24.6933 179.149 24.56C179.683 24.4 180.043 24.1333 180.229 23.76C180.416 23.3867 180.509 22.8133 180.509 22.04V8.64H186.349V28H180.589V25.64C180.163 27.48 178.096 28.4 174.389 28.4ZM191.618 1.64H197.458V6.36H191.618V1.64ZM191.618 8.64H197.458V28H191.618V8.64ZM210.188 28.4C207.894 28.4 206.201 28.24 205.108 27.92C204.014 27.5733 203.254 26.9333 202.827 26C202.401 25.0667 202.188 23.6133 202.188 21.64V14.08C202.188 11.9467 202.788 10.44 203.988 9.56C205.214 8.68 207.188 8.24 209.908 8.24C211.188 8.24 212.188 8.32 212.908 8.48C213.654 8.61333 214.254 8.86667 214.708 9.24C215.161 9.58667 215.628 10.1067 216.108 10.8V-1.90735e-06H221.948V28H216.308V25.8C215.828 26.5733 215.388 27.12 214.988 27.44C214.614 27.7333 214.081 27.96 213.388 28.12C212.668 28.3067 211.601 28.4 210.188 28.4ZM211.668 24.76C212.974 24.76 213.934 24.6933 214.548 24.56C215.161 24.4267 215.574 24.1867 215.788 23.84C216.001 23.4667 216.108 22.92 216.108 22.2V14.4C216.108 13.7333 215.988 13.2267 215.748 12.88C215.534 12.5067 215.134 12.24 214.548 12.08C213.988 11.92 213.134 11.84 211.988 11.84C210.761 11.84 209.881 11.92 209.348 12.08C208.814 12.2133 208.454 12.4667 208.268 12.84C208.108 13.1867 208.028 13.7733 208.028 14.6V22C208.028 22.7467 208.108 23.32 208.268 23.72C208.454 24.0933 208.801 24.36 209.308 24.52C209.814 24.68 210.601 24.76 211.668 24.76ZM236.803 28.4C229.95 28.4 226.523 26.3067 226.523 22.12V15.16C226.523 12.7333 227.297 10.9733 228.843 9.88C230.417 8.78667 232.83 8.24 236.083 8.24C239.15 8.24 241.39 8.77333 242.803 9.84C244.243 10.88 244.963 12.6533 244.963 15.16V19.88H232.403V21.64C232.403 22.76 232.803 23.56 233.603 24.04C234.403 24.52 235.843 24.76 237.923 24.76C239.843 24.76 242.003 24.48 244.403 23.92V27.64C242.03 28.1467 239.497 28.4 236.803 28.4ZM239.403 16.56V13.76C239.403 13.12 239.137 12.64 238.603 12.32C238.097 12 237.23 11.84 236.003 11.84C234.59 11.84 233.643 12 233.163 12.32C232.657 12.6667 232.403 13.1467 232.403 13.76V16.56H239.403Z" fill="black"/>
<path d="M12.28 28.4C11.1067 28.4 10.0533 28.3467 9.12 28.24C8.21333 28.1333 7.21333 27.9333 6.12 27.64C4.89333 27.32 3.88 26.9067 3.08 26.4C2.28 25.8667 1.61333 25.1333 1.08 24.2C0.52 23.2667 0.24 22.16 0.24 20.88V9.48C0.24 4.25333 4.25333 1.64 12.28 1.64C14.3333 1.64 17.08 1.93333 20.52 2.52V7.2C17.4267 6.45333 14.7067 6.08 12.36 6.08C11.3733 6.08 10.6 6.10667 10.04 6.16C9.50667 6.21333 8.94667 6.34667 8.36 6.56C7.10667 6.98667 6.48 7.93333 6.48 9.4V20.44C6.48 22.7867 8.62667 23.96 12.92 23.96C14.76 23.96 17.3467 23.5733 20.68 22.8V27.52C17.8267 28.1067 15.0267 28.4 12.28 28.4ZM24.5872 1.64H30.4272V6.36H24.5872V1.64ZM24.5872 8.64H30.4272V28H24.5872V8.64ZM35.7163 8.64H41.4763V11C41.9296 9.16 43.9963 8.24 47.6763 8.24C50.1563 8.24 51.8896 8.69333 52.8763 9.6C53.8896 10.48 54.3963 11.88 54.3963 13.8V28H48.5563V14.56C48.5563 13.8133 48.4763 13.2533 48.3163 12.88C48.1829 12.5067 47.8896 12.24 47.4363 12.08C47.0096 11.92 46.3429 11.84 45.4363 11.84C44.2896 11.84 43.4496 11.92 42.9163 12.08C42.3829 12.2133 42.0229 12.4667 41.8363 12.84C41.6496 13.2133 41.5563 13.7867 41.5563 14.56V28H35.7163V8.64ZM69.2253 28.4C62.372 28.4 58.9453 26.3067 58.9453 22.12V15.16C58.9453 12.7333 59.7186 10.9733 61.2653 9.88C62.8386 8.78667 65.252 8.24 68.5053 8.24C71.572 8.24 73.812 8.77333 75.2253 9.84C76.6653 10.88 77.3853 12.6533 77.3853 15.16V19.88H64.8253V21.64C64.8253 22.76 65.2253 23.56 66.0253 24.04C66.8253 24.52 68.2653 24.76 70.3453 24.76C72.2653 24.76 74.4253 24.48 76.8253 23.92V27.64C74.452 28.1467 71.9186 28.4 69.2253 28.4ZM71.8253 16.56V13.76C71.8253 13.12 71.5586 12.64 71.0253 12.32C70.5186 12 69.652 11.84 68.4253 11.84C67.012 11.84 66.0653 12 65.5853 12.32C65.0786 12.6667 64.8253 13.1467 64.8253 13.76V16.56H71.8253ZM81.8491 8.64H87.6891V11C88.0624 9.16 89.9691 8.24 93.4091 8.24C95.2224 8.24 96.5957 8.48 97.5291 8.96C98.4624 9.41333 99.0891 10.1333 99.4091 11.12C99.7291 10.1067 100.342 9.37333 101.249 8.92C102.182 8.46667 103.582 8.24 105.449 8.24C107.129 8.24 108.422 8.44 109.329 8.84C110.236 9.21333 110.862 9.8 111.209 10.6C111.582 11.4 111.769 12.4667 111.769 13.8V28H105.929V14.6C105.929 13.7467 105.876 13.1467 105.769 12.8C105.662 12.4267 105.422 12.1733 105.049 12.04C104.702 11.9067 104.089 11.84 103.209 11.84C102.116 11.84 101.329 11.9067 100.849 12.04C100.396 12.1733 100.089 12.4267 99.9291 12.8C99.7957 13.1467 99.7291 13.7467 99.7291 14.6V28H93.8891V14.6C93.8891 13.7467 93.8357 13.1467 93.7291 12.8C93.6224 12.4267 93.3824 12.1733 93.0091 12.04C92.6624 11.9067 92.0491 11.84 91.1691 11.84C90.0757 11.84 89.2891 11.9067 88.8091 12.04C88.3557 12.1733 88.0491 12.4267 87.8891 12.8C87.7557 13.1467 87.6891 13.7467 87.6891 14.6V28H81.8491V8.64ZM122.368 28.4C120.555 28.4 119.195 28.24 118.288 27.92C117.408 27.5733 116.781 26.9733 116.408 26.12C116.061 25.24 115.888 23.9333 115.888 22.2C115.888 20.6533 116.075 19.44 116.448 18.56C116.848 17.68 117.475 17.0533 118.328 16.68C119.208 16.28 120.408 16.08 121.928 16.08H128.488V14.76C128.488 13.9333 128.368 13.32 128.128 12.92C127.915 12.52 127.501 12.24 126.888 12.08C126.301 11.92 125.408 11.84 124.208 11.84C122.555 11.84 120.288 12 117.408 12.32V8.64C119.515 8.37333 121.981 8.24 124.808 8.24C127.288 8.24 129.195 8.42667 130.528 8.8C131.888 9.17333 132.861 9.81333 133.448 10.72C134.035 11.6267 134.328 12.9467 134.328 14.68V28H128.608V26.24C128.155 27.0133 127.541 27.56 126.768 27.88C125.995 28.2267 124.528 28.4 122.368 28.4ZM124.648 24.76C125.821 24.76 126.661 24.72 127.168 24.64C127.541 24.5867 127.795 24.5067 127.928 24.4C128.088 24.2933 128.221 24.12 128.328 23.88C128.435 23.6933 128.488 23.4133 128.488 23.04V19.28H124.488C123.581 19.28 122.941 19.3467 122.568 19.48C122.195 19.5867 121.941 19.8267 121.808 20.2C121.675 20.5467 121.608 21.1733 121.608 22.08C121.608 22.96 121.675 23.5733 121.808 23.92C121.941 24.2667 122.195 24.4933 122.568 24.6C122.968 24.7067 123.661 24.76 124.648 24.76ZM152.066 28.4C150.573 28.4 149.253 28.3333 148.106 28.2C146.96 28.0667 145.826 27.84 144.706 27.52C143.506 27.2 142.52 26.7733 141.746 26.24C140.973 25.68 140.346 24.96 139.866 24.08C139.386 23.1467 139.146 22.08 139.146 20.88V10.08C139.146 8.77333 139.413 7.6 139.946 6.56C140.48 5.49333 141.2 4.65333 142.106 4.04C142.96 3.48 143.973 3 145.146 2.6C146.346 2.2 147.52 1.93333 148.666 1.8C149.626 1.69333 150.786 1.64 152.146 1.64C155.826 1.64 159.346 1.92 162.706 2.48V7.2C159.613 6.45333 156.093 6.08 152.146 6.08C147.64 6.08 145.386 7.38667 145.386 10V20.44C145.386 21.72 145.986 22.6267 147.186 23.16C148.413 23.6933 150.253 23.96 152.706 23.96C154.013 23.96 155.413 23.76 156.906 23.36V17.32H152.666V13.24H162.866V26.72C161.533 27.2 159.826 27.6 157.746 27.92C155.693 28.24 153.8 28.4 152.066 28.4ZM174.389 28.4C171.909 28.4 170.163 27.96 169.149 27.08C168.163 26.1733 167.669 24.76 167.669 22.84V8.64H173.509V22.04C173.509 22.7867 173.576 23.3467 173.709 23.72C173.869 24.0933 174.163 24.36 174.589 24.52C175.043 24.68 175.723 24.76 176.629 24.76C177.776 24.76 178.616 24.6933 179.149 24.56C179.683 24.4 180.043 24.1333 180.229 23.76C180.416 23.3867 180.509 22.8133 180.509 22.04V8.64H186.349V28H180.589V25.64C180.163 27.48 178.096 28.4 174.389 28.4ZM191.618 1.64H197.458V6.36H191.618V1.64ZM191.618 8.64H197.458V28H191.618V8.64ZM210.188 28.4C207.894 28.4 206.201 28.24 205.108 27.92C204.014 27.5733 203.254 26.9333 202.827 26C202.401 25.0667 202.188 23.6133 202.188 21.64V14.08C202.188 11.9467 202.788 10.44 203.988 9.56C205.214 8.68 207.188 8.24 209.908 8.24C211.188 8.24 212.188 8.32 212.908 8.48C213.654 8.61333 214.254 8.86667 214.708 9.24C215.161 9.58667 215.628 10.1067 216.108 10.8V-1.90735e-06H221.948V28H216.308V25.8C215.828 26.5733 215.388 27.12 214.988 27.44C214.614 27.7333 214.081 27.96 213.388 28.12C212.668 28.3067 211.601 28.4 210.188 28.4ZM211.668 24.76C212.974 24.76 213.934 24.6933 214.548 24.56C215.161 24.4267 215.574 24.1867 215.788 23.84C216.001 23.4667 216.108 22.92 216.108 22.2V14.4C216.108 13.7333 215.988 13.2267 215.748 12.88C215.534 12.5067 215.134 12.24 214.548 12.08C213.988 11.92 213.134 11.84 211.988 11.84C210.761 11.84 209.881 11.92 209.348 12.08C208.814 12.2133 208.454 12.4667 208.268 12.84C208.108 13.1867 208.028 13.7733 208.028 14.6V22C208.028 22.7467 208.108 23.32 208.268 23.72C208.454 24.0933 208.801 24.36 209.308 24.52C209.814 24.68 210.601 24.76 211.668 24.76ZM236.803 28.4C229.95 28.4 226.523 26.3067 226.523 22.12V15.16C226.523 12.7333 227.297 10.9733 228.843 9.88C230.417 8.78667 232.83 8.24 236.083 8.24C239.15 8.24 241.39 8.77333 242.803 9.84C244.243 10.88 244.963 12.6533 244.963 15.16V19.88H232.403V21.64C232.403 22.76 232.803 23.56 233.603 24.04C234.403 24.52 235.843 24.76 237.923 24.76C239.843 24.76 242.003 24.48 244.403 23.92V27.64C242.03 28.1467 239.497 28.4 236.803 28.4ZM239.403 16.56V13.76C239.403 13.12 239.137 12.64 238.603 12.32C238.097 12 237.23 11.84 236.003 11.84C234.59 11.84 233.643 12 233.163 12.32C232.657 12.6667 232.403 13.1467 232.403 13.76V16.56H239.403Z" fill="url(#paint0_linear_9_1266)"/>
</g>
<defs>
<linearGradient id="paint0_linear_9_1266" x1="-2" y1="-6" x2="211.931" y2="103.509" gradientUnits="userSpaceOnUse">
<stop offset="0.2" stop-color="#6A5DC2"/>
<stop offset="0.8" stop-color="#DC5DFC"/>
</linearGradient>
</defs>
</svg>
