<svg width="24" height="24" viewBox="0 0 24 24" fill="none" xmlns="http://www.w3.org/2000/svg">
<path d="M23.7705 16.6487V16.3574H23.6985L23.6145 16.5516L23.5305 16.3574H23.4585V16.6487H23.5065V16.4302L23.5905 16.6244H23.6505L23.7345 16.4302V16.6487H23.7705ZM23.2905 16.6487V16.406H23.3865V16.3574H23.1465V16.406H23.2425V16.6487H23.2905Z" fill="#00A2E5"/>
<path d="M15.2361 17.8978H8.74414V6.10173H15.2361V17.8978Z" fill="#FF5F00"/>
<path d="M9.16605 12C9.16605 9.60922 10.27 7.4733 11.998 6.10194C10.738 5.09466 9.14205 4.5 7.41405 4.5C3.32205 4.5 -0.00195312 7.86165 -0.00195312 12C-0.00195312 16.1383 3.32205 19.5 7.41405 19.5C9.14205 19.5 10.738 18.9053 11.998 17.8981C10.27 16.5267 9.16605 14.3908 9.16605 12Z" fill="#EB001B"/>
<path d="M23.998 12C23.998 16.1383 20.674 19.5 16.582 19.5C14.854 19.5 13.258 18.9053 11.998 17.8981C13.726 16.5267 14.83 14.3908 14.83 12C14.83 9.60922 13.726 7.4733 11.998 6.10194C13.258 5.09466 14.854 4.5 16.582 4.5C20.674 4.5 23.998 7.86165 23.998 12Z" fill="#F79E1B"/>
</svg>
