<svg width="30" height="24" viewBox="0 0 30 24" fill="none" xmlns="http://www.w3.org/2000/svg">
<path d="M21.3691 11.7754V16.4982H24.0601V13.8388H26.7691C28.1835 13.8388 29.3902 12.9806 29.8568 11.7754H21.3691Z" fill="white"/>
<path d="M21.248 7.5C21.2594 7.73695 21.2909 7.97231 21.3421 8.20317C21.3533 8.25392 21.3645 8.3056 21.3783 8.35543C21.3835 8.37573 21.3886 8.39603 21.3947 8.41726C21.6357 9.23304 22.1133 9.94546 22.7583 10.4512C23.4033 10.9569 24.1821 11.2297 24.9817 11.2299H29.9513C29.983 11.0451 29.9995 10.8577 30.0004 10.6698C29.9984 9.83011 29.6858 9.02541 29.1311 8.43148C28.5763 7.83756 27.8244 7.50268 27.0396 7.5H21.248Z" fill="url(#paint0_linear_9_1260)"/>
<path d="M16.5984 8.45048L14.7139 12.8181H14.5233V7.5H11.8496V16.5H14.1214C14.4136 16.4998 14.6996 16.4102 14.9457 16.2416C15.1918 16.073 15.3876 15.8325 15.51 15.5486L17.3936 11.1819H17.5851V16.5H20.2587V7.5H17.9861C17.6941 7.50003 17.4082 7.58956 17.1623 7.75801C16.9163 7.92645 16.7207 8.16676 16.5984 8.45048Z" fill="white"/>
<path d="M4.13706 8.68302L5.25224 12.8181H5.44285L6.55803 8.68302C6.64986 8.34263 6.84242 8.04331 7.1068 7.82999C7.37118 7.61667 7.69311 7.50088 8.02423 7.5H10.6979V16.4991H8.02423V11.1819H7.83276L6.3036 16.4991H4.39235L2.86232 11.1819H2.67172V16.4991H-0.00195312V7.5H2.67172C3.00284 7.50088 3.32477 7.61667 3.58915 7.82999C3.85353 8.04331 4.04523 8.34263 4.13706 8.68302Z" fill="white"/>
<defs>
<linearGradient id="paint0_linear_9_1260" x1="-0.00195312" y1="12" x2="30.0004" y2="12" gradientUnits="userSpaceOnUse">
<stop stop-color="#FBFFFA"/>
<stop offset="1" stop-color="#48C464"/>
</linearGradient>
</defs>
</svg>
